<svg width="34" height="34" viewBox="0 0 34 34" fill="none" xmlns="http://www.w3.org/2000/svg">
<path d="M31.6667 33.6667H2.33333C1.8471 33.6667 1.38079 33.4911 1.03697 33.1786C0.693154 32.866 0.5 32.4421 0.5 32V2.00004C0.5 1.55801 0.693154 1.13409 1.03697 0.821529C1.38079 0.508969 1.8471 0.333374 2.33333 0.333374H31.6667C32.1529 0.333374 32.6192 0.508969 32.963 0.821529C33.3068 1.13409 33.5 1.55801 33.5 2.00004V32C33.5 32.4421 33.3068 32.866 32.963 33.1786C32.6192 33.4911 32.1529 33.6667 31.6667 33.6667ZM29.8333 30.3334V3.66671H4.16667V30.3334H29.8333ZM11.5 7.00004V10.3334C11.5 11.6595 12.0795 12.9312 13.1109 13.8689C14.1424 14.8066 15.5413 15.3334 17 15.3334C18.4587 15.3334 19.8576 14.8066 20.8891 13.8689C21.9205 12.9312 22.5 11.6595 22.5 10.3334V7.00004H26.1667V10.3334C26.1667 12.5435 25.2009 14.6631 23.4818 16.2259C21.7627 17.7887 19.4312 18.6667 17 18.6667C14.5688 18.6667 12.2373 17.7887 10.5182 16.2259C8.7991 14.6631 7.83333 12.5435 7.83333 10.3334V7.00004H11.5Z" fill="#0D0D0E"/>
</svg>
